<?xml version="1.0" encoding="UTF-8" standalone="no"?>
<svg
   xmlns:dc="http://purl.org/dc/elements/1.1/"
   xmlns:cc="http://creativecommons.org/ns#"
   xmlns:rdf="http://www.w3.org/1999/02/22-rdf-syntax-ns#"
   xmlns:svg="http://www.w3.org/2000/svg"
   xmlns="http://www.w3.org/2000/svg"
   viewBox="0 0 912.88 375.72"
   height="375.72"
   width="912.88"
   xml:space="preserve"
   id="svg2"
   version="1.1"><metadata
     id="metadata8"><rdf:RDF><cc:Work
         rdf:about=""><dc:format>image/svg+xml</dc:format><dc:type
           rdf:resource="http://purl.org/dc/dcmitype/StillImage" /></cc:Work></rdf:RDF></metadata><defs
     id="defs6"><clipPath
       id="clipPath14"
       clipPathUnits="userSpaceOnUse"><path
         id="path12"
         d="m 23.29,795.43 h 684.66 v 281.79 H 23.29 Z" /></clipPath><clipPath
       id="clipPath24"
       clipPathUnits="userSpaceOnUse"><path
         id="path22"
         d="M 0,0 H 841 V 1189 H 0 Z" /></clipPath><clipPath
       id="clipPath34"
       clipPathUnits="userSpaceOnUse"><path
         id="path32"
         d="M 0,0 H 841 V 1189 H 0 Z" /></clipPath><clipPath
       id="clipPath40"
       clipPathUnits="userSpaceOnUse"><path
         id="path38"
         d="M 543.118,867.957 H 692.575 V 1067.13 H 543.118 Z" /></clipPath><clipPath
       id="clipPath44"
       clipPathUnits="userSpaceOnUse"><path
         id="path42"
         d="m 542,742 h 299 v 327 H 542 Z" /></clipPath><clipPath
       id="clipPath64"
       clipPathUnits="userSpaceOnUse"><path
         id="path62"
         d="M 0,0 H 841 V 1189 H 0 Z" /></clipPath><clipPath
       id="clipPath70"
       clipPathUnits="userSpaceOnUse"><path
         id="path68"
         d="m 393.496,867.564 h 141.95 v 199.176 h -141.95 z" /></clipPath><clipPath
       id="clipPath74"
       clipPathUnits="userSpaceOnUse"><path
         id="path72"
         d="m 392,742 h 449 v 326 H 392 Z" /></clipPath><clipPath
       id="clipPath94"
       clipPathUnits="userSpaceOnUse"><path
         id="path92"
         d="m 35.23608,973.4224 h 30.63888 v 24.5111 H 35.23608 Z" /></clipPath><clipPath
       id="clipPath106"
       clipPathUnits="userSpaceOnUse"><path
         id="path104"
         d="m 120.0511,984.7431 h 12.5296 v 14.31954 h -12.5296 z" /></clipPath><clipPath
       id="clipPath118"
       clipPathUnits="userSpaceOnUse"><path
         id="path116"
         d="m 120.9461,972.1636 h 10.73966 v 14.31954 H 120.9461 Z" /></clipPath><clipPath
       id="clipPath130"
       clipPathUnits="userSpaceOnUse"><path
         id="path128"
         d="m 97.97669,974.6813 h 18.38333 v 24.5111 H 97.97669 Z" /></clipPath><clipPath
       id="clipPath142"
       clipPathUnits="userSpaceOnUse"><path
         id="path140"
         d="M 72.86993,975.3284 H 90.9817 v 20.69916 H 72.86993 Z" /></clipPath><clipPath
       id="clipPath154"
       clipPathUnits="userSpaceOnUse"><path
         id="path152"
         d="m 164.6824,972.446 h 23.15592 v 26.46391 H 164.6824 Z" /></clipPath><clipPath
       id="clipPath166"
       clipPathUnits="userSpaceOnUse"><path
         id="path164"
         d="m 139.5757,975.3284 h 18.11177 v 20.69916 H 139.5757 Z" /></clipPath><clipPath
       id="clipPath178"
       clipPathUnits="userSpaceOnUse"><path
         id="path176"
         d="m 202.4312,973.046 h 119.2769 v 28.7227 H 202.4312 Z" /></clipPath><clipPath
       id="clipPath192"
       clipPathUnits="userSpaceOnUse"><path
         id="path190"
         d="m 202.4312,934.3718 h 119.2769 v 28.72266 H 202.4312 Z" /></clipPath><clipPath
       id="clipPath206"
       clipPathUnits="userSpaceOnUse"><path
         id="path204"
         d="m 202.4312,896.2365 h 131.1519 v 28.72266 H 202.4312 Z" /></clipPath><clipPath
       id="clipPath220"
       clipPathUnits="userSpaceOnUse"><path
         id="path218"
         d="M 66.25711,939.4421 H 86.0185 v 19.7614 H 66.25711 Z" /></clipPath><clipPath
       id="clipPath232"
       clipPathUnits="userSpaceOnUse"><path
         id="path230"
         d="m 37.98684,936.4206 h 22.10684 v 25.26497 H 37.98684 Z" /></clipPath><clipPath
       id="clipPath244"
       clipPathUnits="userSpaceOnUse"><path
         id="path242"
         d="m 94.19384,936.4206 h 29.25079 v 23.40064 H 94.19384 Z" /></clipPath><clipPath
       id="clipPath256"
       clipPathUnits="userSpaceOnUse"><path
         id="path254"
         d="m 132.2414,939.4421 h 17.29122 v 19.7614 H 132.2414 Z" /></clipPath><clipPath
       id="clipPath268"
       clipPathUnits="userSpaceOnUse"><path
         id="path266"
         d="m 178.6272,947.2285 h 11.96195 v 13.6708 H 178.6272 Z" /></clipPath><clipPath
       id="clipPath280"
       clipPathUnits="userSpaceOnUse"><path
         id="path278"
         d="m 179.4816,935.2188 h 10.2531 v 13.6708 h -10.2531 z" /></clipPath><clipPath
       id="clipPath292"
       clipPathUnits="userSpaceOnUse"><path
         id="path290"
         d="m 157.5528,937.6225 h 17.55047 v 23.40064 H 157.5528 Z" /></clipPath><clipPath
       id="clipPath304"
       clipPathUnits="userSpaceOnUse"><path
         id="path302"
         d="m 37.98684,898.3434 h 22.73945 v 25.98795 H 37.98684 Z" /></clipPath><clipPath
       id="clipPath316"
       clipPathUnits="userSpaceOnUse"><path
         id="path314"
         d="m 157.7567,898.3434 h 30.08784 v 24.07027 H 157.7567 Z" /></clipPath><clipPath
       id="clipPath328"
       clipPathUnits="userSpaceOnUse"><path
         id="path326"
         d="m 134.9386,901.4513 h 17.78602 v 20.32689 H 134.9386 Z" /></clipPath><clipPath
       id="clipPath340"
       clipPathUnits="userSpaceOnUse"><path
         id="path338"
         d="m 117.6023,909.4606 h 12.30425 v 14.062 H 117.6023 Z" /></clipPath><clipPath
       id="clipPath352"
       clipPathUnits="userSpaceOnUse"><path
         id="path350"
         d="m 118.4811,897.1072 h 10.5465 v 14.062 h -10.5465 z" /></clipPath><clipPath
       id="clipPath364"
       clipPathUnits="userSpaceOnUse"><path
         id="path362"
         d="m 95.92486,899.5796 h 18.0527 v 24.07027 h -18.0527 z" /></clipPath><clipPath
       id="clipPath376"
       clipPathUnits="userSpaceOnUse"><path
         id="path374"
         d="m 69.43256,901.4513 h 17.78602 v 20.32689 H 69.43256 Z" /></clipPath><clipPath
       id="clipPath388"
       clipPathUnits="userSpaceOnUse"><path
         id="path386"
         d="M 0,0 H 841 V 1189 H 0 Z" /></clipPath><clipPath
       id="clipPath400"
       clipPathUnits="userSpaceOnUse"><path
         id="path398"
         d="m 357.0655,833.1712 h 20.67187 v 23.625 H 357.0655 Z" /></clipPath><clipPath
       id="clipPath412"
       clipPathUnits="userSpaceOnUse"><path
         id="path410"
         d="m 663.8438,835.3763 h 29.54828 v 23.63863 H 663.8438 Z" /></clipPath><clipPath
       id="clipPath424"
       clipPathUnits="userSpaceOnUse"><path
         id="path422"
         d="M 0,0 H 841 V 1189 H 0 Z" /></clipPath><clipPath
       id="clipPath470"
       clipPathUnits="userSpaceOnUse"><path
         id="path468"
         d="m 349.4888,1027.396 h 40.13522 v 26.2299 H 349.4888 Z" /></clipPath><clipPath
       id="clipPath480"
       clipPathUnits="userSpaceOnUse"><path
         id="path478"
         d="m 350.0746,1025.37 h 38.96362 v 31.3303 H 350.0746 Z" /></clipPath><clipPath
       id="clipPath494"
       clipPathUnits="userSpaceOnUse"><path
         id="path492"
         d="m 547.439,968.5685 h 24.55984 v 19.64787 H 547.439 Z" /></clipPath><clipPath
       id="clipPath506"
       clipPathUnits="userSpaceOnUse"><path
         id="path504"
         d="m 547.439,1039.242 h 23.3278 v 20.7358 H 547.439 Z" /></clipPath><clipPath
       id="clipPath518"
       clipPathUnits="userSpaceOnUse"><path
         id="path516"
         d="m 548.8031,907.0012 h 20.59966 v 20.59966 H 548.8031 Z" /></clipPath><clipPath
       id="clipPath530"
       clipPathUnits="userSpaceOnUse"><path
         id="path528"
         d="m 397.5175,1036.646 h 22.00527 v 25.1489 H 397.5175 Z" /></clipPath><clipPath
       id="clipPath542"
       clipPathUnits="userSpaceOnUse"><path
         id="path540"
         d="M 0,0 H 841 V 1189 H 0 Z" /></clipPath><clipPath
       id="clipPath652"
       clipPathUnits="userSpaceOnUse"><path
         id="path650"
         d="m 398.7689,901.9841 h 22.00527 v 25.14887 H 398.7689 Z" /></clipPath><clipPath
       id="clipPath664"
       clipPathUnits="userSpaceOnUse"><path
         id="path662"
         d="m 397.8955,967.1498 h 22.00527 v 25.14887 H 397.8955 Z" /></clipPath><clipPath
       id="clipPath676"
       clipPathUnits="userSpaceOnUse"><path
         id="path674"
         d="m 349.4888,961.4629 h 40.13522 v 26.22995 H 349.4888 Z" /></clipPath><clipPath
       id="clipPath686"
       clipPathUnits="userSpaceOnUse"><path
         id="path684"
         d="m 352.7972,959.4367 h 33.51831 v 31.33032 H 352.7972 Z" /></clipPath><clipPath
       id="clipPath700"
       clipPathUnits="userSpaceOnUse"><path
         id="path698"
         d="m 349.4888,895.5293 h 40.13522 v 26.22995 H 349.4888 Z" /></clipPath><clipPath
       id="clipPath710"
       clipPathUnits="userSpaceOnUse"><path
         id="path708"
         d="m 346.0363,893.5031 h 47.04028 v 31.33032 H 346.0363 Z" /></clipPath></defs><g
     clip-path="url(#clipPath14)"
     transform="matrix(1.3333333,0,0,-1.3333333,-31.053333,1436.2933)"
     id="g10"><g
       id="g16" /><g
       id="g18"><g
         clip-path="url(#clipPath24)"
         id="g20"><path
           id="path26"
           style="fill:#ffffff;fill-opacity:1;fill-rule:nonzero;stroke:none"
           d="M 0,1189 H 841 V 0 H 0 Z" /></g></g><g
       id="g28"><g
         clip-path="url(#clipPath34)"
         id="g30"><g
           id="g36" /><g
           id="g56"><g
             style="opacity:0.71030004"
             id="g54"
             clip-path="url(#clipPath40)"><g
               id="g46" /><g
               id="g52"><g
                 id="g50"
                 clip-path="url(#clipPath44)"><path
                   id="path48"
                   style="fill:#f4f6ff;fill-opacity:1;fill-rule:nonzero;stroke:none"
                   d="m 561.471,1067.128 h 112.7513 c 5.3857,0 8.6171,0 10.7714,-0.9 3.1055,-1.13 5.5519,-3.576 6.6823,-6.682 0.8993,-2.154 0.8993,-5.386 0.8993,-10.771 V 886.3102 c 0,-5.3857 0,-8.6171 -0.8993,-10.7714 -1.1304,-3.1055 -3.5768,-5.5519 -6.6823,-6.6823 -2.1543,-0.8993 -5.3857,-0.8993 -10.7714,-0.8993 H 561.471 c -5.3857,0 -8.6171,0 -10.7714,0.8993 -3.1056,1.1304 -5.5519,3.5768 -6.6823,6.6823 -0.8994,2.1543 -0.8994,5.3857 -0.8994,10.7714 v 162.4648 c 0,5.385 0,8.617 0.8994,10.771 1.1304,3.106 3.5767,5.552 6.6823,6.682 2.1543,0.9 5.3857,0.9 10.7714,0.9 z" /></g></g></g></g></g></g><g
       id="g58"><g
         clip-path="url(#clipPath64)"
         id="g60"><g
           id="g66" /><g
           id="g86"><g
             style="opacity:0.7125"
             id="g84"
             clip-path="url(#clipPath70)"><g
               id="g76" /><g
               id="g82"><g
                 id="g80"
                 clip-path="url(#clipPath74)"><path
                   id="path78"
                   style="fill:#f4f6ff;fill-opacity:1;fill-rule:nonzero;stroke:none"
                   d="m 412.8089,1066.735 h 103.3244 c 5.6674,0 9.0679,0 11.3348,-0.946 3.2681,-1.19 5.8424,-3.764 7.0319,-7.032 0.9464,-2.267 0.9464,-5.668 0.9464,-11.335 V 886.8777 c 0,-5.6674 0,-9.0679 -0.9464,-11.3349 -1.1895,-3.268 -3.7638,-5.8424 -7.0319,-7.0318 -2.2669,-0.9465 -5.6674,-0.9465 -11.3348,-0.9465 H 412.8089 c -5.6674,0 -9.0679,0 -11.3349,0.9465 -3.268,1.1894 -5.8424,3.7638 -7.0318,7.0318 -0.9465,2.267 -0.9465,5.6675 -0.9465,11.3349 v 160.5443 c 0,5.667 0,9.068 0.9465,11.335 1.1894,3.268 3.7638,5.842 7.0318,7.032 2.267,0.946 5.6675,0.946 11.3349,0.946 z" /></g></g></g></g></g></g><g
       id="g88"><g
         clip-path="url(#clipPath94)"
         id="g90"><path
           id="path96"
           style="fill:#000000;fill-opacity:0;fill-rule:nonzero;stroke:none"
           d="m 35.23608,973.4224 h 30.63888 v 24.5111 H 35.23608 Z" /><path
           id="path98"
           style="fill:#000000;fill-opacity:1;fill-rule:nonzero;stroke:none"
           d="m 50.55552,997.9335 c 0.84736,0 1.53195,-0.6846 1.53195,-1.5319 v -3.0639 h 5.74479 c 1.90535,0 3.44687,-1.5415 3.44687,-3.4469 v -13.0215 c 0,-1.9054 -1.54152,-3.4469 -3.44687,-3.4469 H 43.27879 c -1.90536,0 -3.44688,1.5415 -3.44688,3.4469 v 13.0215 c 0,1.9054 1.54152,3.4469 3.44688,3.4469 h 5.74479 v 3.0639 c 0,0.8473 0.68459,1.5319 1.53194,1.5319 z m -5.3618,-18.3833 c -0.42129,0 -0.76597,-0.3447 -0.76597,-0.766 0,-0.4213 0.34468,-0.766 0.76597,-0.766 h 1.53194 c 0.42129,0 0.76597,0.3447 0.76597,0.766 0,0.4213 -0.34468,0.766 -0.76597,0.766 z m 4.59583,0 c -0.42128,0 -0.76597,-0.3447 -0.76597,-0.766 0,-0.4213 0.34469,-0.766 0.76597,-0.766 h 1.53195 c 0.42128,0 0.76597,0.3447 0.76597,0.766 0,0.4213 -0.34469,0.766 -0.76597,0.766 z m 4.59583,0 c -0.42128,0 -0.76597,-0.3447 -0.76597,-0.766 0,-0.4213 0.34469,-0.766 0.76597,-0.766 h 1.53195 c 0.42128,0 0.76597,0.3447 0.76597,0.766 0,0.4213 -0.34469,0.766 -0.76597,0.766 z m -6.51076,6.1278 c 0,1.0575 -0.85734,1.9149 -1.91493,1.9149 -1.05759,0 -1.91493,-0.8574 -1.91493,-1.9149 0,-1.0576 0.85734,-1.915 1.91493,-1.915 1.05759,0 1.91493,0.8574 1.91493,1.915 z m 7.27674,-1.915 c 1.05758,0 1.91493,0.8574 1.91493,1.915 0,1.0575 -0.85735,1.9149 -1.91493,1.9149 -1.05759,0 -1.91493,-0.8574 -1.91493,-1.9149 0,-1.0576 0.85734,-1.915 1.91493,-1.915 z M 37.534,987.2099 h 0.76597 v -9.1917 H 37.534 c -1.26864,0 -2.29792,1.0293 -2.29792,2.298 v 4.5958 c 0,1.2686 1.02928,2.2979 2.29792,2.2979 z m 26.04305,0 c 1.26864,0 2.29791,-1.0293 2.29791,-2.2979 v -4.5958 c 0,-1.2687 -1.02927,-2.298 -2.29791,-2.298 h -0.76597 v 9.1917 z" /></g></g><g
       id="g100"><g
         clip-path="url(#clipPath106)"
         id="g102"><path
           id="path108"
           style="fill:#000000;fill-opacity:0;fill-rule:nonzero;stroke:none"
           d="m 120.0511,984.7431 h 12.5296 v 14.31954 h -12.5296 z" /><path
           id="path110"
           style="fill:#000000;fill-opacity:1;fill-rule:nonzero;stroke:none"
           d="m 132.3178,996.1149 c 0.3496,-0.3496 0.3496,-0.9174 0,-1.267 l -7.1597,-7.1597 c -0.3496,-0.3496 -0.9174,-0.3496 -1.267,0 l -3.5799,3.5798 c -0.3496,0.3496 -0.3496,0.9174 0,1.267 0.3496,0.3496 0.9174,0.3496 1.267,0 l 2.9478,-2.945 6.5277,6.5249 c 0.3496,0.3496 0.9173,0.3496 1.2669,0 h -0.003 z" /></g></g><g
       id="g112"><g
         clip-path="url(#clipPath118)"
         id="g114"><path
           id="path120"
           style="fill:#000000;fill-opacity:0;fill-rule:nonzero;stroke:none"
           d="m 120.9461,972.1636 h 10.73966 v 14.31954 H 120.9461 Z" /><path
           id="path122"
           style="fill:#000000;fill-opacity:1;fill-rule:nonzero;stroke:none"
           d="m 130.5279,982.2711 c 0.3496,0.3496 0.3496,0.9174 0,1.267 -0.3496,0.3496 -0.9174,0.3496 -1.267,0 l -2.945,-2.9478 -2.9478,2.945 c -0.3496,0.3496 -0.9173,0.3496 -1.2669,0 -0.3496,-0.3496 -0.3496,-0.9174 0,-1.267 l 2.9478,-2.945 -2.9451,-2.9478 c -0.3495,-0.3496 -0.3495,-0.9173 0,-1.2669 0.3496,-0.3496 0.9174,-0.3496 1.267,0 l 2.945,2.9478 2.9478,-2.945 c 0.3496,-0.3496 0.9174,-0.3496 1.267,0 0.3496,0.3496 0.3496,0.9173 0,1.2669 l -2.9478,2.945 z" /></g></g><g
       id="g124"><g
         clip-path="url(#clipPath130)"
         id="g126"><path
           id="path132"
           style="fill:#000000;fill-opacity:0;fill-rule:nonzero;stroke:none"
           d="m 97.97669,974.6813 h 18.38333 v 24.5111 H 97.97669 Z" /><path
           id="path134"
           style="fill:#000000;fill-opacity:1;fill-rule:nonzero;stroke:none"
           d="m 101.0406,999.1924 c -1.68995,0 -3.06391,-1.374 -3.06391,-3.0639 v -18.3834 c 0,-1.6899 1.37396,-3.0638 3.06391,-3.0638 h 12.2555 c 1.69,0 3.0639,1.3739 3.0639,3.0638 v 13.7875 h -6.1278 c -0.8473,0 -1.5319,0.6846 -1.5319,1.532 v 6.1278 z m 9.1916,0 v -6.1278 h 6.1278 z m -6.8937,-12.2556 h 7.6597 c 0.4213,0 0.766,-0.3447 0.766,-0.766 0,-0.4213 -0.3447,-0.7659 -0.766,-0.7659 h -7.6597 c -0.4213,0 -0.766,0.3446 -0.766,0.7659 0,0.4213 0.3447,0.766 0.766,0.766 z m 0,-3.0639 h 7.6597 c 0.4213,0 0.766,-0.3447 0.766,-0.766 0,-0.4212 -0.3447,-0.7659 -0.766,-0.7659 h -7.6597 c -0.4213,0 -0.766,0.3447 -0.766,0.7659 0,0.4213 0.3447,0.766 0.766,0.766 z m 0,-3.0639 h 7.6597 c 0.4213,0 0.766,-0.3447 0.766,-0.7659 0,-0.4213 -0.3447,-0.766 -0.766,-0.766 h -7.6597 c -0.4213,0 -0.766,0.3447 -0.766,0.766 0,0.4212 0.3447,0.7659 0.766,0.7659 z" /></g></g><g
       id="g136"><g
         clip-path="url(#clipPath142)"
         id="g138"><path
           id="path144"
           style="fill:#000000;fill-opacity:0;fill-rule:nonzero;stroke:none"
           d="M 72.86993,975.3284 H 90.9817 v 20.69916 H 72.86993 Z" /><path
           id="path146"
           style="fill:#000000;fill-opacity:1;fill-rule:nonzero;stroke:none"
           d="m 90.60167,984.7643 c 0.50535,0.5053 0.50535,1.326 0,1.8314 l -6.46849,6.4685 c -0.50535,0.5053 -1.32604,0.5053 -1.83139,0 -0.50535,-0.5054 -0.50535,-1.3261 0,-1.8314 l 4.26516,-4.2611 H 74.16363 c -0.71558,0 -1.2937,-0.5782 -1.2937,-1.2937 0,-0.7156 0.57812,-1.2937 1.2937,-1.2937 h 12.39928 l -4.25707,-4.2612 c -0.50536,-0.5053 -0.50536,-1.326 0,-1.8313 0.50535,-0.5054 1.32604,-0.5054 1.83139,0 l 6.46849,6.4684 -0.0041,0.004 z" /></g></g><g
       id="g148"><g
         clip-path="url(#clipPath154)"
         id="g150"><path
           id="path156"
           style="fill:#000000;fill-opacity:0;fill-rule:nonzero;stroke:none"
           d="m 164.6824,972.446 h 23.15592 v 26.46391 H 164.6824 Z" /><path
           id="path158"
           style="fill:#000000;fill-opacity:1;fill-rule:nonzero;stroke:none"
           d="m 176.2604,985.678 c 3.6539,0 6.616,2.962 6.616,6.6159 0,3.6539 -2.9621,6.616 -6.616,6.616 -3.6539,0 -6.616,-2.9621 -6.616,-6.616 0,-3.6539 2.9621,-6.6159 6.616,-6.6159 z m -4.962,-2.8532 c -3.8248,-1.1216 -6.616,-4.657 -6.616,-8.8437 0,-0.8477 0.6875,-1.5351 1.5352,-1.5351 h 20.0857 c 0.8476,0 1.5351,0.6874 1.5351,1.5351 0,4.1867 -2.7911,7.7221 -6.616,8.8437 v -2.6257 c 1.4266,-0.367 2.481,-1.6643 2.481,-3.2046 v -2.0675 c 0,-0.4549 -0.3722,-0.827 -0.827,-0.827 h -0.827 c -0.4549,0 -0.827,0.3721 -0.827,0.827 0,0.4548 0.3721,0.827 0.827,0.827 v 1.2405 c 0,0.9149 -0.7391,1.654 -1.654,1.654 -0.9149,0 -1.654,-0.7391 -1.654,-1.654 v -1.2405 c 0.4548,0 0.827,-0.3722 0.827,-0.827 0,-0.4549 -0.3722,-0.827 -0.827,-0.827 h -0.827 c -0.4548,0 -0.827,0.3721 -0.827,0.827 v 2.0675 c 0,1.5403 1.0544,2.8376 2.481,3.2046 v 2.9513 c -0.3101,0.0311 -0.6254,0.0466 -0.9459,0.0466 h -4.7242 c -0.3205,0 -0.6358,-0.0155 -0.9459,-0.0466 v -3.3803 c 1.194,-0.3566 2.0675,-1.4628 2.0675,-2.7756 0,-1.5972 -1.2973,-2.8945 -2.8945,-2.8945 -1.5971,0 -2.8945,1.2973 -2.8945,2.8945 0,1.3128 0.8735,2.419 2.0675,2.7756 z m 0.827,-7.0708 c 0.6851,0 1.2405,0.5554 1.2405,1.2405 0,0.6851 -0.5554,1.2405 -1.2405,1.2405 -0.6851,0 -1.2405,-0.5554 -1.2405,-1.2405 0,-0.6851 0.5554,-1.2405 1.2405,-1.2405 z" /></g></g><g
       id="g160"><g
         clip-path="url(#clipPath166)"
         id="g162"><path
           id="path168"
           style="fill:#000000;fill-opacity:0;fill-rule:nonzero;stroke:none"
           d="m 139.5757,975.3284 h 18.11177 v 20.69916 H 139.5757 Z" /><path
           id="path170"
           style="fill:#000000;fill-opacity:1;fill-rule:nonzero;stroke:none"
           d="m 157.3074,984.7643 c 0.5054,0.5053 0.5054,1.326 0,1.8314 l -6.4685,6.4685 c -0.5053,0.5053 -1.326,0.5053 -1.8314,0 -0.5053,-0.5054 -0.5053,-1.3261 0,-1.8314 l 4.2652,-4.2611 h -12.4033 c -0.7156,0 -1.2937,-0.5782 -1.2937,-1.2937 0,-0.7156 0.5781,-1.2937 1.2937,-1.2937 h 12.3993 l -4.2571,-4.2612 c -0.5054,-0.5053 -0.5054,-1.326 0,-1.8313 0.5053,-0.5054 1.326,-0.5054 1.8314,0 l 6.4685,6.4684 -0.004,0.004 z" /></g></g><g
       id="g172"><g
         clip-path="url(#clipPath178)"
         id="g174"><g
           transform="translate(207.2926,981.2667)"
           id="g180"><text
             id="text184"
             style="font-variant:normal;font-weight:normal;font-size:16px;font-family:Verdana;-inkscape-font-specification:Verdana;writing-mode:lr-tb;fill:#000000;fill-opacity:0.9;fill-rule:nonzero;stroke:none"
             transform="scale(1,-1)"><tspan
               id="tspan182"
               y="0"
               x="0 9.6479998 16.476801 26.007999 33.273602 40.102402 49.633598 59.102402 63.492802 73.024002 86.118401 95.649597">Pre-reviewer</tspan></text>
</g></g></g><g
       id="g186"><g
         clip-path="url(#clipPath192)"
         id="g188"><g
           transform="translate(207.2926,942.5925)"
           id="g194"><text
             id="text198"
             style="font-variant:normal;font-weight:normal;font-size:16px;font-family:Verdana;-inkscape-font-specification:Verdana;writing-mode:lr-tb;fill:#000000;fill-opacity:0.9;fill-rule:nonzero;stroke:none"
             transform="scale(1,-1)"><tspan
               id="tspan196"
               y="0"
               x="0 11.1712 20.8864 28.153601 34.9888 44.512001 53.987202 58.374401 67.897598 80.9888 90.512001">Co-reviewer</tspan></text>
</g></g></g><g
       id="g200"><g
         clip-path="url(#clipPath206)"
         id="g202"><g
           transform="translate(207.2926,904.4572)"
           id="g208"><text
             id="text212"
             style="font-variant:normal;font-weight:normal;font-size:16px;font-family:Verdana;-inkscape-font-specification:Verdana;writing-mode:lr-tb;fill:#000000;fill-opacity:0.9;fill-rule:nonzero;stroke:none"
             transform="scale(1,-1)"><tspan
               id="tspan210"
               y="0"
               x="0 9.2575998 18.968 27.304001 33.296001 40.5616 47.3904 56.9216 66.390404 70.7808 80.311996 93.406403 102.9376">Post-reviewer</tspan></text>
</g></g></g><g
       id="g214"><g
         clip-path="url(#clipPath220)"
         id="g216"><path
           id="path222"
           style="fill:#000000;fill-opacity:0;fill-rule:nonzero;stroke:none"
           d="M 66.25711,939.4421 H 86.0185 v 19.7614 H 66.25711 Z" /><path
           id="path224"
           style="fill:#000000;fill-opacity:1;fill-rule:nonzero;stroke:none"
           d="m 70.3136,951.3838 c 0.29719,0.8414 0.77965,1.6327 1.45895,2.3081 2.41227,2.4123 6.3221,2.4123 8.73438,0 l 0.66,-0.6639 h -1.32386 c -0.68316,0 -1.23509,-0.5519 -1.23509,-1.235 0,-0.6832 0.55193,-1.2351 1.23509,-1.2351 h 4.3035 c 0,0 0,0 0,0 h 0.01544 c 0.68316,0 1.23509,0.5519 1.23509,1.2351 v 4.3228 c 0,0.6831 -0.55193,1.2351 -1.23509,1.2351 -0.68316,0 -1.23508,-0.552 -1.23508,-1.2351 v -1.3586 l -0.67544,0.6793 c -3.37719,3.3772 -8.85017,3.3772 -12.22736,0 -0.94176,-0.9418 -1.62106,-2.0495 -2.0379,-3.2344 -0.22772,-0.6446 0.11193,-1.347 0.75263,-1.5748 0.6407,-0.2277 1.34702,0.112 1.57474,0.7527 v 0.004 z m -2.55123,-3.3463 c -0.19298,-0.0579 -0.37824,-0.1621 -0.52877,-0.3165 -0.15439,-0.1544 -0.2586,-0.3396 -0.31263,-0.5403 -0.01158,-0.0463 -0.02316,-0.0965 -0.03088,-0.1467 -0.01158,-0.0656 -0.01544,-0.1312 -0.01544,-0.1968 v -4.3074 c 0,-0.6832 0.55193,-1.2351 1.23509,-1.2351 0.68316,0 1.23509,0.5519 1.23509,1.2351 v 1.3547 l 0.6793,-0.6754 c 0,0 0,0 0,0 3.37719,-3.3733 8.85017,-3.3733 12.2235,0 0.94175,0.9418 1.62491,2.0495 2.04175,3.2344 0.22772,0.6445 -0.11193,1.347 -0.75263,1.5747 -0.6407,0.2277 -1.34702,-0.1119 -1.57474,-0.7526 -0.29719,-0.8414 -0.77965,-1.6326 -1.45894,-2.3081 -2.41228,-2.4123 -6.3221,-2.4123 -8.73438,0 l -0.0039,0.004 -0.66,0.6561 h 1.32771 c 0.68316,0 1.23509,0.552 1.23509,1.2351 0,0.6832 -0.55193,1.2351 -1.23509,1.2351 h -4.30736 c -0.06176,0 -0.12351,-0.004 -0.18526,-0.0116 -0.06176,-0.008 -0.11965,-0.0193 -0.17755,-0.0386 z" /></g></g><g
       id="g226"><g
         clip-path="url(#clipPath232)"
         id="g228"><path
           id="path234"
           style="fill:#000000;fill-opacity:0;fill-rule:nonzero;stroke:none"
           d="m 37.98684,936.4206 h 22.10684 v 25.26497 H 37.98684 Z" /><path
           id="path236"
           style="fill:#000000;fill-opacity:1;fill-rule:nonzero;stroke:none"
           d="m 49.04027,949.0531 c 3.48836,0 6.31624,2.8279 6.31624,6.3163 0,3.4883 -2.82788,6.3162 -6.31624,6.3162 -3.48837,0 -6.31625,-2.8279 -6.31624,-6.3162 0,-3.4884 2.82787,-6.3163 6.31624,-6.3163 z m -4.73718,-2.7239 c -3.65158,-1.0708 -6.31625,-4.446 -6.31625,-8.443 0,-0.8093 0.6563,-1.4656 1.46557,-1.4656 h 19.17571 c 0.80927,0 1.46557,0.6563 1.46557,1.4656 0,3.997 -2.66467,7.3722 -6.31624,8.443 v -2.5067 c 1.36194,-0.3504 2.36859,-1.5889 2.36859,-3.0594 v -1.9739 c 0,-0.4342 -0.35529,-0.7895 -0.78953,-0.7895 h -0.78953 c -0.43424,0 -0.78953,0.3553 -0.78953,0.7895 0,0.4343 0.35529,0.7896 0.78953,0.7896 v 1.1843 c 0,0.8734 -0.70565,1.579 -1.57906,1.579 -0.87342,0 -1.57906,-0.7056 -1.57906,-1.579 v -1.1843 c 0.43424,0 0.78953,-0.3553 0.78953,-0.7896 0,-0.4342 -0.35529,-0.7895 -0.78953,-0.7895 h -0.78953 c -0.43425,0 -0.78953,0.3553 -0.78953,0.7895 v 1.9739 c 0,1.4705 1.00665,2.709 2.36859,3.0594 v 2.8176 c -0.29608,0.0296 -0.59709,0.0444 -0.90303,0.0444 h -4.51019 c -0.30594,0 -0.60695,-0.0148 -0.90302,-0.0444 v -3.2272 c 1.13988,-0.3405 1.97382,-1.3965 1.97382,-2.6498 0,-1.5248 -1.23857,-2.7634 -2.76335,-2.7634 -1.52478,0 -2.76336,1.2386 -2.76336,2.7634 0,1.2533 0.83394,2.3093 1.97383,2.6498 z m 0.78953,-6.7504 c 0.65406,0 1.18429,0.5302 1.18429,1.1843 0,0.654 -0.53023,1.1843 -1.18429,1.1843 -0.65407,0 -1.1843,-0.5303 -1.1843,-1.1843 0,-0.6541 0.53023,-1.1843 1.1843,-1.1843 z" /></g></g><g
       id="g238"><g
         clip-path="url(#clipPath244)"
         id="g240"><path
           id="path246"
           style="fill:#000000;fill-opacity:0;fill-rule:nonzero;stroke:none"
           d="m 94.19384,936.4206 h 29.25079 v 23.40064 H 94.19384 Z" /><path
           id="path248"
           style="fill:#000000;fill-opacity:1;fill-rule:nonzero;stroke:none"
           d="m 108.8192,959.8213 c 0.809,0 1.4626,-0.6536 1.4626,-1.4626 v -2.925 h 5.4845 c 1.819,0 3.2907,-1.4717 3.2907,-3.2908 v -12.4315 c 0,-1.8191 -1.4717,-3.2908 -3.2907,-3.2908 h -13.8941 c -1.8191,0 -3.29074,1.4717 -3.29074,3.2908 v 12.4315 c 0,1.8191 1.47164,3.2908 3.29074,3.2908 h 5.4845 v 2.925 c 0,0.809 0.6536,1.4626 1.4625,1.4626 z m -5.1189,-17.5505 c -0.4022,0 -0.7312,-0.3291 -0.7312,-0.7313 0,-0.4022 0.329,-0.7312 0.7312,-0.7312 h 1.4626 c 0.4022,0 0.7313,0.329 0.7313,0.7312 0,0.4022 -0.3291,0.7313 -0.7313,0.7313 z m 4.3877,0 c -0.4022,0 -0.7313,-0.3291 -0.7313,-0.7313 0,-0.4022 0.3291,-0.7312 0.7313,-0.7312 h 1.4625 c 0.4022,0 0.7313,0.329 0.7313,0.7312 0,0.4022 -0.3291,0.7313 -0.7313,0.7313 z m 4.3876,0 c -0.4022,0 -0.7313,-0.3291 -0.7313,-0.7313 0,-0.4022 0.3291,-0.7312 0.7313,-0.7312 h 1.4625 c 0.4022,0 0.7313,0.329 0.7313,0.7312 0,0.4022 -0.3291,0.7313 -0.7313,0.7313 z m -6.2158,5.8502 c 0,1.0096 -0.8185,1.8281 -1.8282,1.8281 -1.0097,0 -1.8282,-0.8185 -1.8282,-1.8281 0,-1.0097 0.8185,-1.8282 1.8282,-1.8282 1.0097,0 1.8282,0.8185 1.8282,1.8282 z m 6.9471,-1.8282 c 1.0096,0 1.8281,0.8185 1.8281,1.8282 0,1.0096 -0.8185,1.8281 -1.8281,1.8281 -1.0097,0 -1.8282,-0.8185 -1.8282,-1.8281 0,-1.0097 0.8185,-1.8282 1.8282,-1.8282 z m -16.81925,3.2907 h 0.73127 v -8.7752 h -0.73127 c -1.21117,0 -2.19381,0.9826 -2.19381,2.1938 v 4.3876 c 0,1.2112 0.98264,2.1938 2.19381,2.1938 z m 24.86315,0 c 1.2112,0 2.1938,-0.9826 2.1938,-2.1938 v -4.3876 c 0,-1.2112 -0.9826,-2.1938 -2.1938,-2.1938 h -0.7313 v 8.7752 z" /></g></g><g
       id="g250"><g
         clip-path="url(#clipPath256)"
         id="g252"><path
           id="path258"
           style="fill:#000000;fill-opacity:0;fill-rule:nonzero;stroke:none"
           d="m 132.2414,939.4421 h 17.29122 v 19.7614 H 132.2414 Z" /><path
           id="path260"
           style="fill:#000000;fill-opacity:1;fill-rule:nonzero;stroke:none"
           d="m 149.1698,948.4505 c 0.4825,0.4825 0.4825,1.266 0,1.7484 l -6.1754,6.1755 c -0.4825,0.4824 -1.266,0.4824 -1.7485,0 -0.4824,-0.4825 -0.4824,-1.266 0,-1.7485 l 4.072,-4.068 h -11.8414 c -0.6832,0 -1.2351,-0.552 -1.2351,-1.2351 0,-0.6832 0.5519,-1.2351 1.2351,-1.2351 h 11.8375 l -4.0642,-4.0681 c -0.4824,-0.4824 -0.4824,-1.2659 0,-1.7484 0.4825,-0.4824 1.266,-0.4824 1.7484,0 l 6.1755,6.1754 -0.004,0.004 z" /></g></g><g
       id="g262"><g
         clip-path="url(#clipPath268)"
         id="g264"><path
           id="path270"
           style="fill:#000000;fill-opacity:0;fill-rule:nonzero;stroke:none"
           d="m 178.6272,947.2285 h 11.96195 v 13.6708 H 178.6272 Z" /><path
           id="path272"
           style="fill:#000000;fill-opacity:1;fill-rule:nonzero;stroke:none"
           d="m 190.3381,958.085 c 0.3338,-0.3337 0.3338,-0.8757 0,-1.2095 l -6.8354,-6.8354 c -0.3337,-0.3338 -0.8757,-0.3338 -1.2095,0 l -3.4177,3.4177 c -0.3338,0.3338 -0.3338,0.8758 0,1.2095 0.3338,0.3338 0.8758,0.3338 1.2095,0 l 2.8143,-2.8116 6.232,6.2293 c 0.3337,0.3338 0.8757,0.3338 1.2095,0 h -0.003 z" /></g></g><g
       id="g274"><g
         clip-path="url(#clipPath280)"
         id="g276"><path
           id="path282"
           style="fill:#000000;fill-opacity:0;fill-rule:nonzero;stroke:none"
           d="m 179.4816,935.2188 h 10.2531 v 13.6708 h -10.2531 z" /><path
           id="path284"
           style="fill:#000000;fill-opacity:1;fill-rule:nonzero;stroke:none"
           d="m 188.6293,944.8685 c 0.3337,0.3338 0.3337,0.8758 0,1.2095 -0.3338,0.3338 -0.8758,0.3338 -1.2096,0 l -2.8116,-2.8142 -2.8142,2.8116 c -0.3338,0.3337 -0.8758,0.3337 -1.2096,0 -0.3337,-0.3338 -0.3337,-0.8758 0,-1.2096 l 2.8143,-2.8116 -2.8116,-2.8142 c -0.3338,-0.3338 -0.3338,-0.8758 0,-1.2096 0.3338,-0.3337 0.8758,-0.3337 1.2096,0 l 2.8115,2.8143 2.8143,-2.8116 c 0.3338,-0.3338 0.8758,-0.3338 1.2095,0 0.3338,0.3338 0.3338,0.8758 0,1.2095 l -2.8142,2.8116 z" /></g></g><g
       id="g286"><g
         clip-path="url(#clipPath292)"
         id="g288"><path
           id="path294"
           style="fill:#000000;fill-opacity:0;fill-rule:nonzero;stroke:none"
           d="m 157.5528,937.6225 h 17.55047 v 23.40064 H 157.5528 Z" /><path
           id="path296"
           style="fill:#000000;fill-opacity:1;fill-rule:nonzero;stroke:none"
           d="m 160.4779,961.0231 c -1.6134,0 -2.9251,-1.3117 -2.9251,-2.9251 v -17.5505 c 0,-1.6133 1.3117,-2.925 2.9251,-2.925 h 11.7003 c 1.6134,0 2.9251,1.3117 2.9251,2.925 v 13.1629 h -5.8502 c -0.8089,0 -1.4625,0.6536 -1.4625,1.4625 v 5.8502 z m 8.7752,0 v -5.8502 h 5.8502 z m -6.5814,-11.7003 h 7.3127 c 0.4022,0 0.7313,-0.3291 0.7313,-0.7313 0,-0.4022 -0.3291,-0.7313 -0.7313,-0.7313 h -7.3127 c -0.4022,0 -0.7313,0.3291 -0.7313,0.7313 0,0.4022 0.3291,0.7313 0.7313,0.7313 z m 0,-2.9251 h 7.3127 c 0.4022,0 0.7313,-0.3291 0.7313,-0.7313 0,-0.4022 -0.3291,-0.7312 -0.7313,-0.7312 h -7.3127 c -0.4022,0 -0.7313,0.329 -0.7313,0.7312 0,0.4022 0.3291,0.7313 0.7313,0.7313 z m 0,-2.9251 h 7.3127 c 0.4022,0 0.7313,-0.329 0.7313,-0.7312 0,-0.4022 -0.3291,-0.7313 -0.7313,-0.7313 h -7.3127 c -0.4022,0 -0.7313,0.3291 -0.7313,0.7313 0,0.4022 0.3291,0.7312 0.7313,0.7312 z" /></g></g><g
       id="g298"><g
         clip-path="url(#clipPath304)"
         id="g300"><path
           id="path306"
           style="fill:#000000;fill-opacity:0;fill-rule:nonzero;stroke:none"
           d="m 37.98684,898.3434 h 22.73945 v 25.98795 H 37.98684 Z" /><path
           id="path308"
           style="fill:#000000;fill-opacity:1;fill-rule:nonzero;stroke:none"
           d="m 49.35657,911.3374 c 3.58819,0 6.49699,2.9088 6.49699,6.497 0,3.5882 -2.9088,6.497 -6.49699,6.497 -3.58819,0 -6.49699,-2.9088 -6.49699,-6.497 0,-3.5882 2.90881,-6.497 6.49699,-6.497 z m -4.87274,-2.8018 c -3.75607,-1.1014 -6.49699,-4.5733 -6.49699,-8.6847 0,-0.8324 0.67508,-1.5075 1.50751,-1.5075 h 19.72444 c 0.83243,0 1.50751,0.6751 1.50751,1.5075 0,4.1114 -2.74092,7.5833 -6.49699,8.6847 v -2.5785 c 1.40091,-0.3604 2.43637,-1.6344 2.43637,-3.147 v -2.0303 c 0,-0.4467 -0.36545,-0.8121 -0.81212,-0.8121 h -0.81213 c -0.44666,0 -0.81212,0.3654 -0.81212,0.8121 0,0.4467 0.36546,0.8121 0.81212,0.8121 v 1.2182 c 0,0.8984 -0.72583,1.6243 -1.62424,1.6243 -0.89841,0 -1.62425,-0.7259 -1.62425,-1.6243 v -1.2182 c 0.44667,0 0.81212,-0.3654 0.81212,-0.8121 0,-0.4467 -0.36545,-0.8121 -0.81212,-0.8121 h -0.81212 c -0.44667,0 -0.81213,0.3654 -0.81213,0.8121 v 2.0303 c 0,1.5126 1.03546,2.7866 2.43637,3.147 v 2.8983 c -0.30454,0.0304 -0.61416,0.0456 -0.92886,0.0456 h -4.63926 c -0.31469,0 -0.62432,-0.0152 -0.92886,-0.0456 v -3.3196 c 1.17251,-0.3502 2.03031,-1.4364 2.03031,-2.7257 0,-1.5684 -1.27402,-2.8424 -2.84244,-2.8424 -1.5684,0 -2.84242,1.274 -2.84242,2.8424 0,1.2893 0.8578,2.3755 2.0303,2.7257 z m 0.81212,-6.9437 c 0.67279,0 1.21819,0.5454 1.21819,1.2182 0,0.6728 -0.5454,1.2182 -1.21819,1.2182 -0.67278,0 -1.21818,-0.5454 -1.21818,-1.2182 0,-0.6728 0.5454,-1.2182 1.21818,-1.2182 z" /></g></g><g
       id="g310"><g
         clip-path="url(#clipPath316)"
         id="g312"><path
           id="path318"
           style="fill:#000000;fill-opacity:0;fill-rule:nonzero;stroke:none"
           d="m 157.7567,898.3434 h 30.08784 v 24.07027 H 157.7567 Z" /><path
           id="path320"
           style="fill:#000000;fill-opacity:1;fill-rule:nonzero;stroke:none"
           d="m 172.8006,922.4137 c 0.8321,0 1.5044,-0.6723 1.5044,-1.5044 v -3.0088 h 5.6415 c 1.871,0 3.3848,-1.5138 3.3848,-3.3848 v -12.7874 c 0,-1.8711 -1.5138,-3.3849 -3.3848,-3.3849 h -14.2918 c -1.8711,0 -3.3849,1.5138 -3.3849,3.3849 v 12.7874 c 0,1.871 1.5138,3.3848 3.3849,3.3848 h 5.6415 v 3.0088 c 0,0.8321 0.6723,1.5044 1.5044,1.5044 z m -5.2654,-18.0527 c -0.4137,0 -0.7522,-0.3385 -0.7522,-0.7522 0,-0.4137 0.3385,-0.7522 0.7522,-0.7522 h 1.5044 c 0.4137,0 0.7522,0.3385 0.7522,0.7522 0,0.4137 -0.3385,0.7522 -0.7522,0.7522 z m 4.5132,0 c -0.4137,0 -0.7522,-0.3385 -0.7522,-0.7522 0,-0.4137 0.3385,-0.7522 0.7522,-0.7522 h 1.5044 c 0.4137,0 0.7522,0.3385 0.7522,0.7522 0,0.4137 -0.3385,0.7522 -0.7522,0.7522 z m 4.5132,0 c -0.4137,0 -0.7522,-0.3385 -0.7522,-0.7522 0,-0.4137 0.3385,-0.7522 0.7522,-0.7522 h 1.5044 c 0.4137,0 0.7522,0.3385 0.7522,0.7522 0,0.4137 -0.3385,0.7522 -0.7522,0.7522 z m -6.3937,6.0176 c 0,1.0385 -0.8419,1.8805 -1.8805,1.8805 -1.0386,0 -1.8805,-0.842 -1.8805,-1.8805 0,-1.0386 0.8419,-1.8805 1.8805,-1.8805 1.0386,0 1.8805,0.8419 1.8805,1.8805 z m 7.1459,-1.8805 c 1.0385,0 1.8805,0.8419 1.8805,1.8805 0,1.0385 -0.842,1.8805 -1.8805,1.8805 -1.0386,0 -1.8805,-0.842 -1.8805,-1.8805 0,-1.0386 0.8419,-1.8805 1.8805,-1.8805 z m -17.3005,3.3849 h 0.7522 v -9.0264 h -0.7522 c -1.2459,0 -2.2566,1.0108 -2.2566,2.2566 v 4.5132 c 0,1.2458 1.0107,2.2566 2.2566,2.2566 z m 25.5746,0 c 1.2458,0 2.2566,-1.0108 2.2566,-2.2566 v -4.5132 c 0,-1.2458 -1.0108,-2.2566 -2.2566,-2.2566 h -0.7522 v 9.0264 z" /></g></g><g
       id="g322"><g
         clip-path="url(#clipPath328)"
         id="g324"><path
           id="path330"
           style="fill:#000000;fill-opacity:0;fill-rule:nonzero;stroke:none"
           d="m 134.9386,901.4513 h 17.78602 v 20.32689 H 134.9386 Z" /><path
           id="path332"
           style="fill:#000000;fill-opacity:1;fill-rule:nonzero;stroke:none"
           d="m 152.3514,910.7175 c 0.4963,0.4963 0.4963,1.3022 0,1.7985 l -6.3521,6.3521 c -0.4963,0.4963 -1.3022,0.4963 -1.7985,0 -0.4962,-0.4962 -0.4962,-1.3022 0,-1.7984 l 4.1885,-4.1845 H 136.209 c -0.7027,0 -1.2704,-0.5677 -1.2704,-1.2704 0,-0.7027 0.5677,-1.2705 1.2704,-1.2705 h 12.1763 l -4.1805,-4.1844 c -0.4963,-0.4963 -0.4963,-1.3022 0,-1.7985 0.4962,-0.4962 1.3022,-0.4962 1.7984,0 l 6.3522,6.3522 -0.004,0.004 z" /></g></g><g
       id="g334"><g
         clip-path="url(#clipPath340)"
         id="g336"><path
           id="path342"
           style="fill:#000000;fill-opacity:0;fill-rule:nonzero;stroke:none"
           d="m 117.6023,909.4606 h 12.30425 v 14.062 H 117.6023 Z" /><path
           id="path344"
           style="fill:#000000;fill-opacity:1;fill-rule:nonzero;stroke:none"
           d="m 129.6484,920.6278 c 0.3433,-0.3433 0.3433,-0.9009 0,-1.2442 l -7.031,-7.031 c -0.3434,-0.3433 -0.9009,-0.3433 -1.2442,0 l -3.5155,3.5155 c -0.3433,0.3433 -0.3433,0.9009 0,1.2442 0.3433,0.3433 0.9008,0.3433 1.2442,0 l 2.8948,-2.8921 6.4102,6.4076 c 0.3434,0.3433 0.9009,0.3433 1.2442,0 h -0.003 z" /></g></g><g
       id="g346"><g
         clip-path="url(#clipPath352)"
         id="g348"><path
           id="path354"
           style="fill:#000000;fill-opacity:0;fill-rule:nonzero;stroke:none"
           d="m 118.4811,897.1072 h 10.5465 v 14.062 h -10.5465 z" /><path
           id="path356"
           style="fill:#000000;fill-opacity:1;fill-rule:nonzero;stroke:none"
           d="m 127.8906,907.033 c 0.3433,0.3433 0.3433,0.9009 0,1.2442 -0.3433,0.3433 -0.9008,0.3433 -1.2442,0 l -2.892,-2.8948 -2.8948,2.892 c -0.3433,0.3433 -0.9008,0.3433 -1.2442,0 -0.3433,-0.3433 -0.3433,-0.9008 0,-1.2441 l 2.8948,-2.8921 -2.892,-2.8948 c -0.3433,-0.3433 -0.3433,-0.9008 0,-1.2441 0.3433,-0.3433 0.9008,-0.3433 1.2441,0 l 2.8921,2.8948 2.8948,-2.8921 c 0.3433,-0.3433 0.9008,-0.3433 1.2441,0 0.3434,0.3433 0.3434,0.9009 0,1.2442 l -2.8947,2.892 z" /></g></g><g
       id="g358"><g
         clip-path="url(#clipPath364)"
         id="g360"><path
           id="path366"
           style="fill:#000000;fill-opacity:0;fill-rule:nonzero;stroke:none"
           d="m 95.92486,899.5796 h 18.0527 v 24.07027 h -18.0527 z" /><path
           id="path368"
           style="fill:#000000;fill-opacity:1;fill-rule:nonzero;stroke:none"
           d="m 98.93364,923.6499 c -1.65953,0 -3.00878,-1.3492 -3.00878,-3.0088 v -18.0527 c 0,-1.6595 1.34925,-3.0088 3.00878,-3.0088 h 12.03516 c 1.6595,0 3.0088,1.3493 3.0088,3.0088 V 916.128 H 107.96 c -0.8321,0 -1.5044,0.6722 -1.5044,1.5043 v 6.0176 z m 9.02636,0 v -6.0176 h 6.0176 z m -6.7698,-12.0351 h 7.522 c 0.4137,0 0.7522,-0.3385 0.7522,-0.7522 0,-0.4137 -0.3385,-0.7522 -0.7522,-0.7522 h -7.522 c -0.4137,0 -0.7522,0.3385 -0.7522,0.7522 0,0.4137 0.3385,0.7522 0.7522,0.7522 z m 0,-3.0088 h 7.522 c 0.4137,0 0.7522,-0.3385 0.7522,-0.7522 0,-0.4137 -0.3385,-0.7522 -0.7522,-0.7522 h -7.522 c -0.4137,0 -0.7522,0.3385 -0.7522,0.7522 0,0.4137 0.3385,0.7522 0.7522,0.7522 z m 0,-3.0088 h 7.522 c 0.4137,0 0.7522,-0.3385 0.7522,-0.7522 0,-0.4137 -0.3385,-0.7522 -0.7522,-0.7522 h -7.522 c -0.4137,0 -0.7522,0.3385 -0.7522,0.7522 0,0.4137 0.3385,0.7522 0.7522,0.7522 z" /></g></g><g
       id="g370"><g
         clip-path="url(#clipPath376)"
         id="g372"><path
           id="path378"
           style="fill:#000000;fill-opacity:0;fill-rule:nonzero;stroke:none"
           d="m 69.43256,901.4513 h 17.78602 v 20.32689 H 69.43256 Z" /><path
           id="path380"
           style="fill:#000000;fill-opacity:1;fill-rule:nonzero;stroke:none"
           d="m 86.84539,910.7175 c 0.49626,0.4963 0.49626,1.3022 0,1.7985 l -6.35215,6.3521 c -0.49626,0.4963 -1.30219,0.4963 -1.79845,0 -0.49626,-0.4962 -0.49626,-1.3022 0,-1.7984 l 4.18845,-4.1845 H 70.70299 c -0.70271,0 -1.27043,-0.5677 -1.27043,-1.2704 0,-0.7027 0.56772,-1.2705 1.27043,-1.2705 h 12.17628 l -4.18051,-4.1844 c -0.49626,-0.4963 -0.49626,-1.3022 0,-1.7985 0.49626,-0.4962 1.30219,-0.4962 1.79845,0 l 6.35215,6.3522 -0.004,0.004 z" /></g></g><g
       id="g382"><g
         clip-path="url(#clipPath388)"
         id="g384"><g
           transform="matrix(1,0,0,-1,384.9053,850.1928)"
           id="g390"><path
             id="path392"
             style="fill:none;stroke:#000000;stroke-width:3;stroke-linecap:butt;stroke-linejoin:miter;stroke-miterlimit:4;stroke-dasharray:none;stroke-opacity:1"
             d="M 0,0 H 271.0665" /></g></g></g><g
       id="g394"><g
         clip-path="url(#clipPath400)"
         id="g396"><path
           id="path402"
           style="fill:#000000;fill-opacity:0;fill-rule:nonzero;stroke:none"
           d="m 357.0655,833.1712 h 20.67187 v 23.625 H 357.0655 Z" /><path
           id="path404"
           style="fill:#000000;fill-opacity:1;fill-rule:nonzero;stroke:none"
           d="m 367.4015,844.9837 c 3.2619,0 5.9062,2.6443 5.9062,5.9062 0,3.2619 -2.6443,5.9063 -5.9062,5.9063 -3.262,0 -5.9063,-2.6444 -5.9063,-5.9063 0,-3.2619 2.6443,-5.9062 5.9063,-5.9062 z m -4.4297,-2.5471 c -3.4146,-1.0013 -5.9063,-4.1575 -5.9063,-7.895 0,-0.7567 0.6137,-1.3704 1.3705,-1.3704 h 17.931 c 0.7567,0 1.3704,0.6137 1.3704,1.3704 0,3.7375 -2.4917,6.8937 -5.9063,7.895 v -2.3441 c 1.2736,-0.3276 2.2149,-1.4857 2.2149,-2.8608 v -1.8457 c 0,-0.406 -0.3322,-0.7383 -0.7383,-0.7383 h -0.7383 c -0.406,0 -0.7383,0.3323 -0.7383,0.7383 0,0.4061 0.3323,0.7383 0.7383,0.7383 v 1.1074 c 0,0.8167 -0.6598,1.4766 -1.4765,1.4766 -0.8168,0 -1.4766,-0.6599 -1.4766,-1.4766 v -1.1074 c 0.4061,0 0.7383,-0.3322 0.7383,-0.7383 0,-0.406 -0.3322,-0.7383 -0.7383,-0.7383 h -0.7383 c -0.406,0 -0.7383,0.3323 -0.7383,0.7383 v 1.8457 c 0,1.3751 0.9413,2.5332 2.2149,2.8608 v 2.6348 c -0.2769,0.0277 -0.5583,0.0415 -0.8444,0.0415 h -4.2175 c -0.286,0 -0.5675,-0.0138 -0.8444,-0.0415 v -3.0177 c 1.0659,-0.3184 1.8457,-1.3059 1.8457,-2.4779 0,-1.4258 -1.1581,-2.584 -2.584,-2.584 -1.4258,0 -2.5839,1.1582 -2.5839,2.584 0,1.172 0.7798,2.1595 1.8457,2.4779 z m 0.7382,-6.3123 c 0.6117,0 1.1075,0.4958 1.1075,1.1074 0,0.6116 -0.4958,1.1074 -1.1075,1.1074 -0.6116,0 -1.1074,-0.4958 -1.1074,-1.1074 0,-0.6116 0.4958,-1.1074 1.1074,-1.1074 z" /></g></g><g
       id="g406"><g
         clip-path="url(#clipPath412)"
         id="g408"><path
           id="path414"
           style="fill:#000000;fill-opacity:0;fill-rule:nonzero;stroke:none"
           d="m 663.8438,835.3763 h 29.54828 v 23.63863 H 663.8438 Z" /><path
           id="path416"
           style="fill:#000000;fill-opacity:1;fill-rule:nonzero;stroke:none"
           d="m 678.618,859.0149 c 0.8172,0 1.4774,-0.6602 1.4774,-1.4774 v -2.9548 h 5.5403 c 1.8375,0 3.3242,-1.4867 3.3242,-3.3242 v -12.558 c 0,-1.8376 -1.4867,-3.3242 -3.3242,-3.3242 h -14.0355 c -1.8375,0 -3.3241,1.4866 -3.3241,3.3242 v 12.558 c 0,1.8375 1.4866,3.3242 3.3241,3.3242 h 5.5403 v 2.9548 c 0,0.8172 0.6603,1.4774 1.4775,1.4774 z m -5.171,-17.729 c -0.4063,0 -0.7387,-0.3324 -0.7387,-0.7387 0,-0.4063 0.3324,-0.7387 0.7387,-0.7387 h 1.4774 c 0.4063,0 0.7387,0.3324 0.7387,0.7387 0,0.4063 -0.3324,0.7387 -0.7387,0.7387 z m 4.4323,0 c -0.4063,0 -0.7388,-0.3324 -0.7388,-0.7387 0,-0.4063 0.3325,-0.7387 0.7388,-0.7387 h 1.4774 c 0.4063,0 0.7387,0.3324 0.7387,0.7387 0,0.4063 -0.3324,0.7387 -0.7387,0.7387 z m 4.4322,0 c -0.4063,0 -0.7387,-0.3324 -0.7387,-0.7387 0,-0.4063 0.3324,-0.7387 0.7387,-0.7387 h 1.4774 c 0.4063,0 0.7387,0.3324 0.7387,0.7387 0,0.4063 -0.3324,0.7387 -0.7387,0.7387 z m -6.279,5.9097 c 0,1.0199 -0.8268,1.8468 -1.8468,1.8468 -1.0199,0 -1.8467,-0.8269 -1.8467,-1.8468 0,-1.0199 0.8268,-1.8468 1.8467,-1.8468 1.02,0 1.8468,0.8269 1.8468,1.8468 z m 7.0177,-1.8468 c 1.0199,0 1.8468,0.8269 1.8468,1.8468 0,1.0199 -0.8269,1.8468 -1.8468,1.8468 -1.0199,0 -1.8468,-0.8269 -1.8468,-1.8468 0,-1.0199 0.8269,-1.8468 1.8468,-1.8468 z m -16.9903,3.3242 h 0.7388 v -8.8645 h -0.7388 c -1.2234,0 -2.2161,0.9927 -2.2161,2.2161 v 4.4323 c 0,1.2235 0.9927,2.2161 2.2161,2.2161 z m 25.1161,0 c 1.2235,0 2.2161,-0.9926 2.2161,-2.2161 v -4.4323 c 0,-1.2234 -0.9926,-2.2161 -2.2161,-2.2161 h -0.7387 v 8.8645 z" /></g></g><g
       id="g418"><g
         clip-path="url(#clipPath424)"
         id="g420"><g
           transform="translate(467.0741,833.273)"
           id="g426"><text
             id="text430"
             style="font-variant:normal;font-weight:normal;font-size:16px;font-family:HelveticaNeue;-inkscape-font-specification:HelveticaNeue;writing-mode:lr-tb;fill:#000000;fill-opacity:0.9;fill-rule:nonzero;stroke:none"
             transform="scale(1,-1)"><tspan
               id="tspan428"
               y="0"
               x="0 4.1440001 13.04 18.08 26.672001 32 40.591999 49.183998 54.223999 57.776001 66.959999 75.856003 80.304001 83.856003 92.447998 100.448 109.04">Interaction level</tspan></text>
</g><path
           id="path432"
           style="fill:#000000;fill-opacity:1;fill-rule:nonzero;stroke:none"
           d="m 433.5935,847.1956 5.3106,-18.6336 h -10.6212 z" /><path
           id="path434"
           style="fill:#000000;fill-opacity:1;fill-rule:nonzero;stroke:none"
           d="m 613.1467,848.6268 5.3106,-18.8859 h -10.6212 z" /><g
           transform="translate(391.106,811.276)"
           id="g436"><text
             id="text440"
             style="font-variant:normal;font-weight:bold;font-size:15px;font-family:HelveticaNeue;-inkscape-font-specification:HelveticaNeue-Bold;writing-mode:lr-tb;fill:#5e5e5e;fill-opacity:1;fill-rule:nonzero;stroke:none"
             transform="scale(1,-1)"><tspan
               id="tspan438"
               y="0"
               x="0 3.8699999 13.035">low</tspan></text>
</g><g
           transform="translate(391.106,811.276)"
           id="g442" /><g
           transform="translate(391.106,811.276)"
           id="g444"><text
             id="text448"
             style="font-variant:normal;font-weight:bold;font-size:15px;font-family:HelveticaNeue;-inkscape-font-specification:HelveticaNeue-Bold;writing-mode:lr-tb;fill:#5e5e5e;fill-opacity:1;fill-rule:nonzero;stroke:none"
             transform="matrix(1,0,0,-1,29.415,0)"><tspan
               id="tspan446"
               y="0"
               x="0 8.0550003 16.950001 26.115 35.279999 44.445 50.279999">support</tspan></text>
</g><g
           transform="translate(567.8692,812.2926)"
           id="g450"><text
             id="text454"
             style="font-variant:normal;font-weight:bold;font-size:15px;font-family:HelveticaNeue;-inkscape-font-specification:HelveticaNeue-Bold;writing-mode:lr-tb;fill:#5e5e5e;fill-opacity:1;fill-rule:nonzero;stroke:none"
             transform="scale(1,-1)"><tspan
               id="tspan452"
               y="0"
               x="0 8.8950005 12.765 21.93">high</tspan></text>
</g><g
           transform="translate(567.8692,812.2926)"
           id="g456" /><g
           transform="translate(567.8692,812.2926)"
           id="g458"><text
             id="text462"
             style="font-variant:normal;font-weight:bold;font-size:15px;font-family:HelveticaNeue;-inkscape-font-specification:HelveticaNeue-Bold;writing-mode:lr-tb;fill:#5e5e5e;fill-opacity:1;fill-rule:nonzero;stroke:none"
             transform="matrix(1,0,0,-1,34.995,0)"><tspan
               id="tspan460"
               y="0"
               x="0 8.0550003 16.950001 26.115 35.279999 44.445 50.279999">support</tspan></text>
</g></g></g><g
       id="g464"><g
         clip-path="url(#clipPath470)"
         id="g466"><path
           id="path472"
           style="fill:#000000;fill-opacity:1;fill-rule:nonzero;stroke:none"
           d="m 357.0582,1052.626 h 24.9964 c 1.9278,0 3.0845,0 3.8556,-0.322 1.1116,-0.404 1.9873,-1.28 2.3919,-2.391 0.3219,-0.772 0.3219,-1.928 0.3219,-3.856 v -11.091 c 0,-1.928 0,-3.085 -0.3219,-3.856 -0.4046,-1.111 -1.2803,-1.987 -2.3919,-2.392 -0.7711,-0.322 -1.9278,-0.322 -3.8556,-0.322 h -24.9964 c -1.9278,0 -3.0845,0 -3.8556,0.322 -1.1116,0.405 -1.9873,1.281 -2.3919,2.392 -0.3219,0.771 -0.3219,1.928 -0.3219,3.856 v 11.091 c 0,1.928 0,3.084 0.3219,3.856 0.4046,1.111 1.2803,1.987 2.3919,2.391 0.7711,0.322 1.9278,0.322 3.8556,0.322 z" /></g></g><g
       id="g474"><g
         clip-path="url(#clipPath480)"
         id="g476"><g
           transform="translate(355.7397,1034.105)"
           id="g482"><text
             id="text486"
             style="font-variant:normal;font-weight:normal;font-size:17px;font-family:Verdana;-inkscape-font-specification:Verdana;writing-mode:lr-tb;fill:#ffffff;fill-opacity:1;fill-rule:nonzero;stroke:none"
             transform="scale(1,-1)"><tspan
               id="tspan484"
               y="0"
               x="0 10.251 17.506599">Pre</tspan></text>
</g></g></g><g
       id="g488"><g
         clip-path="url(#clipPath494)"
         id="g490"><path
           id="path496"
           style="fill:#000000;fill-opacity:0;fill-rule:nonzero;stroke:none"
           d="m 547.439,968.5685 h 24.55984 v 19.64787 H 547.439 Z" /><path
           id="path498"
           style="fill:#000000;fill-opacity:1;fill-rule:nonzero;stroke:none"
           d="m 555.4209,974.7084 c 4.4093,0 7.982,3.0239 7.982,6.754 0,3.73 -3.5727,6.7539 -7.982,6.7539 -4.4092,0 -7.9819,-3.0239 -7.9819,-6.7539 0,-1.4813 0.5641,-2.8513 1.5196,-3.968 -0.1343,-0.3607 -0.3338,-0.6792 -0.5449,-0.9478 -0.1842,-0.238 -0.3722,-0.4222 -0.5104,-0.5488 -0.0691,-0.0614 -0.1266,-0.1113 -0.165,-0.142 -0.0192,-0.0153 -0.0345,-0.0268 -0.0422,-0.0307 l -0.008,-0.008 c 0,0 0,0 0,0 0,0 0,0 0,0 -0.211,-0.1573 -0.3031,-0.4336 -0.2187,-0.683 0.0844,-0.2495 0.3185,-0.426 0.5833,-0.426 0.8365,0 1.6808,0.2149 2.383,0.4797 0.3531,0.1343 0.6831,0.284 0.9671,0.4375 1.1819,-0.5833 2.5519,-0.9172 4.0178,-0.9172 z m 9.21,6.754 c 0,-4.3095 -3.803,-7.556 -8.3082,-7.9436 0.9325,-2.8551 4.0255,-4.9503 7.6942,-4.9503 1.4659,0 2.8359,0.3338 4.0178,0.9171 0.2878,-0.1535 0.614,-0.3031 0.967,-0.4375 0.7023,-0.2647 1.5465,-0.4796 2.3831,-0.4796 0.2648,0 0.5027,0.1726 0.5833,0.4259 0.0806,0.2533 -0.008,0.5296 -0.2226,0.6869 0,0 0,0 0,0 0,0 0,0 0,0 l -0.008,0.008 c -0.008,0.008 -0.0231,0.0154 -0.0422,0.0307 -0.0384,0.0307 -0.096,0.0767 -0.1651,0.142 -0.1381,0.1266 -0.3261,0.3108 -0.5103,0.5487 -0.2111,0.2687 -0.4107,0.591 -0.545,0.9479 0.9556,1.1129 1.5197,2.4828 1.5197,3.968 0,3.5611 -3.258,6.4814 -7.391,6.7347 0.0154,-0.1957 0.023,-0.3952 0.023,-0.5948 l 0.004,-0.004 z" /></g></g><g
       id="g500"><g
         clip-path="url(#clipPath506)"
         id="g502"><path
           id="path508"
           style="fill:#000000;fill-opacity:0;fill-rule:nonzero;stroke:none"
           d="m 547.439,1039.242 h 23.3278 v 20.7358 H 547.439 Z" /><path
           id="path510"
           style="fill:#000000;fill-opacity:1;fill-rule:nonzero;stroke:none"
           d="m 559.1029,1058.682 c -3.2724,0 -5.8927,-1.49 -7.8003,-3.264 -1.8953,-1.758 -3.163,-3.864 -3.7624,-5.31 -0.1336,-0.319 -0.1336,-0.676 0,-0.996 0.5994,-1.446 1.8671,-3.552 3.7624,-5.309 1.9076,-1.774 4.5279,-3.265 7.8003,-3.265 3.2723,0 5.8927,1.491 7.8002,3.265 1.8954,1.761 3.163,3.863 3.7665,5.309 0.1336,0.32 0.1336,0.677 0,0.996 -0.6035,1.446 -1.8711,3.552 -3.7665,5.31 -1.9075,1.774 -4.5279,3.264 -7.8002,3.264 z m -5.832,-9.072 c 0,3.221 2.6111,5.832 5.832,5.832 3.2209,0 5.8319,-2.611 5.8319,-5.832 0,-3.221 -2.611,-5.832 -5.8319,-5.832 -3.2209,0 -5.832,2.611 -5.832,5.832 z m 5.832,2.592 c 0,-1.429 -1.1624,-2.592 -2.592,-2.592 -0.2876,0 -0.5629,0.049 -0.8221,0.134 -0.2228,0.073 -0.482,-0.065 -0.4739,-0.3 0.0122,-0.279 0.0527,-0.559 0.1296,-0.838 0.5549,-2.074 2.6892,-3.305 4.7628,-2.75 2.0735,0.555 3.3047,2.689 2.7499,4.763 -0.4496,1.68 -1.9359,2.81 -3.5883,2.879 -0.2349,0.01 -0.3726,-0.247 -0.2997,-0.474 0.0851,-0.259 0.1337,-0.534 0.1337,-0.822 z" /></g></g><g
       id="g512"><g
         clip-path="url(#clipPath518)"
         id="g514"><path
           id="path520"
           style="fill:#000000;fill-opacity:0;fill-rule:nonzero;stroke:none"
           d="m 548.8031,907.0012 h 20.59966 v 20.59966 H 548.8031 Z" /><path
           id="path522"
           style="fill:#000000;fill-opacity:1;fill-rule:nonzero;stroke:none"
           d="m 554.9226,926.0639 c 0.3983,-0.3581 0.4305,-0.9656 0.0724,-1.3639 l -2.8968,-3.2187 c -0.177,-0.1971 -0.4265,-0.3138 -0.692,-0.3178 -0.2656,-0.004 -0.519,0.0965 -0.7081,0.2816 l -1.6134,1.6093 c -0.3742,0.3782 -0.3742,0.9898 0,1.368 0.3742,0.3782 0.9897,0.3782 1.3639,0 l 0.8892,-0.8892 2.2169,2.4623 c 0.358,0.3983 0.9656,0.4305 1.3639,0.0724 z m 0,-6.4374 c 0.3983,-0.358 0.4305,-0.9656 0.0724,-1.3639 l -2.8968,-3.2187 c -0.177,-0.1971 -0.4265,-0.3138 -0.692,-0.3178 -0.2656,-0.004 -0.519,0.0965 -0.7081,0.2816 l -1.6134,1.6093 c -0.3782,0.3782 -0.3782,0.9898 0,1.364 0.3782,0.3741 0.9897,0.3782 1.3639,0 l 0.8892,-0.8892 2.2169,2.4623 c 0.358,0.3983 0.9656,0.4305 1.3639,0.0724 z m 2.8928,4.1119 c 0,0.7122 0.5753,1.2875 1.2875,1.2875 h 9.0123 c 0.7122,0 1.2875,-0.5753 1.2875,-1.2875 0,-0.7121 -0.5753,-1.2875 -1.2875,-1.2875 h -9.0123 c -0.7122,0 -1.2875,0.5754 -1.2875,1.2875 z m 0,-6.4374 c 0,0.7122 0.5753,1.2875 1.2875,1.2875 h 9.0123 c 0.7122,0 1.2875,-0.5753 1.2875,-1.2875 0,-0.7121 -0.5753,-1.2875 -1.2875,-1.2875 h -9.0123 c -0.7122,0 -1.2875,0.5754 -1.2875,1.2875 z m -2.575,-6.4374 c 0,0.7122 0.5754,1.2875 1.2875,1.2875 h 11.5873 c 0.7122,0 1.2875,-0.5753 1.2875,-1.2875 0,-0.7121 -0.5753,-1.2874 -1.2875,-1.2874 h -11.5873 c -0.7121,0 -1.2875,0.5753 -1.2875,1.2874 z m -4.5061,1.9312 c 1.0666,0 1.9312,-0.8646 1.9312,-1.9312 0,-1.0666 -0.8646,-1.9312 -1.9312,-1.9312 -1.0666,0 -1.9312,0.8646 -1.9312,1.9312 0,1.0666 0.8646,1.9312 1.9312,1.9312 z" /></g></g><g
       id="g524"><g
         clip-path="url(#clipPath530)"
         id="g526"><path
           id="path532"
           style="fill:#000000;fill-opacity:0;fill-rule:nonzero;stroke:none"
           d="m 397.5175,1036.646 h 22.00527 v 25.1489 H 397.5175 Z" /><path
           id="path534"
           style="fill:#000000;fill-opacity:1;fill-rule:nonzero;stroke:none"
           d="m 403.8047,1059.83 c 0,1.086 0.8792,1.965 1.9647,1.965 1.0856,0 1.9648,-0.879 1.9648,-1.965 v -7.279 c 0.4175,0.373 0.9676,0.599 1.5718,0.599 1.0119,0 1.8763,-0.638 2.2104,-1.532 0.4322,0.457 1.0413,0.746 1.7191,0.746 1.2427,0 2.2595,-0.957 2.3528,-2.176 0.4175,0.379 0.9726,0.605 1.5767,0.605 1.3017,0 2.3577,-1.057 2.3577,-2.358 v -2.358 -0.786 -2.357 c 0,-3.473 -2.8145,-6.288 -6.2872,-6.288 h -0.7859 -3.1436 -0.005 -0.2554 c -0.2456,0 -0.4863,0.015 -0.7221,0.049 -2.7162,0.275 -5.2164,1.67 -6.8766,3.881 l -3.5366,4.715 c -0.6533,0.87 -0.4764,2.098 0.393,2.751 0.8694,0.653 2.0973,0.476 2.7506,-0.393 l 2.7507,-3.669 v 15.85 z m 5.5013,-12.967 c 0,0.432 -0.3537,0.786 -0.7859,0.786 -0.4322,0 -0.7859,-0.354 -0.7859,-0.786 v -4.715 c 0,-0.433 0.3537,-0.786 0.7859,-0.786 0.4322,0 0.7859,0.353 0.7859,0.786 z m 2.3577,0.786 c -0.4322,0 -0.7859,-0.354 -0.7859,-0.786 v -4.715 c 0,-0.433 0.3537,-0.786 0.7859,-0.786 0.4323,0 0.7859,0.353 0.7859,0.786 v 4.715 c 0,0.432 -0.3536,0.786 -0.7859,0.786 z m 3.9295,-0.786 c 0,0.432 -0.3536,0.786 -0.7859,0.786 -0.4322,0 -0.7859,-0.354 -0.7859,-0.786 v -4.715 c 0,-0.433 0.3537,-0.786 0.7859,-0.786 0.4323,0 0.7859,0.353 0.7859,0.786 z" /></g></g><g
       id="g536"><g
         clip-path="url(#clipPath542)"
         id="g538"><g
           transform="translate(435.4788,1045.795)"
           id="g544"><text
             id="text548"
             style="font-variant:normal;font-weight:normal;font-size:14px;font-family:HelveticaNeue;-inkscape-font-specification:HelveticaNeue;writing-mode:lr-tb;fill:#000000;fill-opacity:0.9;fill-rule:nonzero;stroke:none"
             transform="scale(1,-1)"><tspan
               id="tspan546"
               y="0"
               x="0 9.0719995 16.856001 24.892 35.504002 39.396 43.806 51.324001 58.324001 66.108002 69.216003 73.625999 80.625999">Show results </tspan></text>
</g><g
           transform="translate(426.5118,1029.795)"
           id="g550"><text
             id="text554"
             style="font-variant:normal;font-weight:normal;font-size:14px;font-family:HelveticaNeue;-inkscape-font-specification:HelveticaNeue;writing-mode:lr-tb;fill:#000000;fill-opacity:0.9;fill-rule:nonzero;stroke:none"
             transform="scale(1,-1)"><tspan
               id="tspan552"
               y="0"
               x="0 7.7839999 16.086 24.122 31.906 35.798 40.208 47.726002 56.028 63.812 71.330002 78.330002 82.739998 90.258003">upon requested</tspan></text>
</g><g
           transform="translate(428.1915,975.4301)"
           id="g556"><text
             id="text560"
             style="font-variant:normal;font-weight:normal;font-size:14px;font-family:HelveticaNeue;-inkscape-font-specification:HelveticaNeue;writing-mode:lr-tb;fill:#000000;fill-opacity:0.9;fill-rule:nonzero;stroke:none"
             transform="scale(1,-1)"><tspan
               id="tspan558"
               y="0"
               x="0 10.108 17.625999 20.733999 29.035999 32.928001 40.964001 49.265999 53.675999 56.784 64.82 72.603996 79.603996 83.496002 87.639999 95.676003 100.338">Help options for </tspan></text>
</g><g
           transform="translate(426.3645,959.4301)"
           id="g562"><text
             id="text566"
             style="font-variant:normal;font-weight:normal;font-size:14px;font-family:HelveticaNeue;-inkscape-font-specification:HelveticaNeue;writing-mode:lr-tb;fill:#000000;fill-opacity:0.9;fill-rule:nonzero;stroke:none"
             transform="scale(1,-1)"><tspan
               id="tspan564"
               y="0"
               x="0 8.302 12.712 20.23 28.532">prede</tspan></text>
</g><g
           transform="translate(426.3645,959.4301)"
           id="g568"><text
             id="text572"
             style="font-variant:normal;font-weight:normal;font-size:14px;font-family:HelveticaNeue;-inkscape-font-specification:HelveticaNeue;writing-mode:lr-tb;fill:#000000;fill-opacity:0.9;fill-rule:nonzero;stroke:none"
             transform="matrix(1,0,0,-1,36.05,0)"><tspan
               id="tspan570"
               y="0"
               x="0">f</tspan></text>
</g><g
           transform="translate(426.3645,959.4301)"
           id="g574"><text
             id="text578"
             style="font-variant:normal;font-weight:normal;font-size:14px;font-family:HelveticaNeue;-inkscape-font-specification:HelveticaNeue;writing-mode:lr-tb;fill:#000000;fill-opacity:0.9;fill-rule:nonzero;stroke:none"
             transform="matrix(1,0,0,-1,43.302,0)"><tspan
               id="tspan576"
               y="0"
               x="0 7.7839999 15.302 23.604 27.496 31.906 39.424 46.424 53.689999">ned tasks</tspan></text>
</g><g
           transform="translate(438.4188,911.5026)"
           id="g580"><text
             id="text584"
             style="font-variant:normal;font-weight:normal;font-size:14px;font-family:HelveticaNeue;-inkscape-font-specification:HelveticaNeue;writing-mode:lr-tb;fill:#000000;fill-opacity:0.9;fill-rule:nonzero;stroke:none"
             transform="scale(1,-1)"><tspan
               id="tspan582"
               y="0"
               x="0 9.0719995 16.856001 24.892 35.504002 39.396 47.18 54.964001 67.157997">Show LLM </tspan></text>
</g><g
           transform="translate(431.9438,895.5026)"
           id="g586"><text
             id="text590"
             style="font-variant:normal;font-weight:normal;font-size:14px;font-family:HelveticaNeue;-inkscape-font-specification:HelveticaNeue;writing-mode:lr-tb;fill:#000000;fill-opacity:0.9;fill-rule:nonzero;stroke:none"
             transform="scale(1,-1)"><tspan
               id="tspan588"
               y="0"
               x="0 8.302 15.82 23.337999 26.445999 33.445999 36.554001 44.59 52.374001 59.374001 63.265999 67.410004 75.445999 80.108002">decisions for </tspan></text>
</g><g
           transform="translate(435.0448,879.5026)"
           id="g592"><text
             id="text596"
             style="font-variant:normal;font-weight:normal;font-size:14px;font-family:HelveticaNeue;-inkscape-font-specification:HelveticaNeue;writing-mode:lr-tb;fill:#000000;fill-opacity:0.9;fill-rule:nonzero;stroke:none"
             transform="scale(1,-1)"><tspan
               id="tspan594"
               y="0"
               x="0 7.5180001 15.554 27.496 35.798 43.316002 47.978001 51.085999 58.085999 66.122002">comparison</tspan></text>
</g><g
           transform="translate(586.7422,1045.704)"
           id="g598"><text
             id="text602"
             style="font-variant:normal;font-weight:normal;font-size:14px;font-family:HelveticaNeue;-inkscape-font-specification:HelveticaNeue;writing-mode:lr-tb;fill:#000000;fill-opacity:0.9;fill-rule:nonzero;stroke:none"
             transform="scale(1,-1)"><tspan
               id="tspan600"
               y="0"
               x="0 9.5900002 17.108 24.108 31.625999 39.144001 42.251999 46.144001 50.554001 58.071999 65.071999 72.856003 75.963997 80.374001 87.374001">Reveal results </tspan></text>
</g><g
           transform="translate(573.7782,1029.704)"
           id="g604"><text
             id="text608"
             style="font-variant:normal;font-weight:normal;font-size:14px;font-family:HelveticaNeue;-inkscape-font-specification:HelveticaNeue;writing-mode:lr-tb;fill:#000000;fill-opacity:0.9;fill-rule:nonzero;stroke:none"
             transform="scale(1,-1)"><tspan
               id="tspan606"
               y="0"
               x="0 7.5180001 10.626 18.662001 26.445999 34.481998 38.374001 48.986 52.094002 56.504002 64.288002 68.18 75.18 79.589996 87.374001 95.676003 98.783997 106.302">along with studies</tspan></text>
</g><g
           transform="translate(589.7176,979.7081)"
           id="g610"><text
             id="text614"
             style="font-variant:normal;font-weight:normal;font-size:14px;font-family:HelveticaNeue;-inkscape-font-specification:HelveticaNeue;writing-mode:lr-tb;fill:#000000;fill-opacity:0.9;fill-rule:nonzero;stroke:none"
             transform="scale(1,-1)"><tspan
               id="tspan612"
               y="0"
               x="0 3.6259999 11.41 15.302 22.82 31.122 39.424 42.532001 46.942001 50.049999 58.085999 65.870003 69.762001 74.171997 82.208">In addition to </tspan></text>
</g><g
           transform="translate(582.7176,963.7081)"
           id="g616"><text
             id="text620"
             style="font-variant:normal;font-weight:normal;font-size:14px;font-family:HelveticaNeue;-inkscape-font-specification:HelveticaNeue;writing-mode:lr-tb;fill:#000000;fill-opacity:0.9;fill-rule:nonzero;stroke:none"
             transform="scale(1,-1)"><tspan
               id="tspan618"
               y="0"
               x="0 8.0360003 16.337999 20.747999 23.856001 31.892 39.675999 46.675999 50.568001 54.459999 61.978001 69.762001 77.279999 85.582001 88.690002 96.208">options, enable </tspan></text>
</g><g
           transform="translate(617.2066,947.7081)"
           id="g622"><text
             id="text626"
             style="font-variant:normal;font-weight:normal;font-size:14px;font-family:HelveticaNeue;-inkscape-font-specification:HelveticaNeue;writing-mode:lr-tb;fill:#000000;fill-opacity:0.9;fill-rule:nonzero;stroke:none"
             transform="scale(1,-1)"><tspan
               id="tspan624"
               y="0"
               x="0 7.5180001 15.302 22.82">chat</tspan></text>
</g><g
           transform="translate(581.9848,911.7943)"
           id="g628"><text
             id="text632"
             style="font-variant:normal;font-weight:normal;font-size:14px;font-family:HelveticaNeue;-inkscape-font-specification:HelveticaNeue;writing-mode:lr-tb;fill:#000000;fill-opacity:0.9;fill-rule:nonzero;stroke:none"
             transform="scale(1,-1)"><tspan
               id="tspan630"
               y="0"
               x="0 10.108 17.892 25.41 32.928001 40.194 44.085999 52.388 60.424 64.834 72.351997 80.136002 84.545998 87.653999 95.171997 98.279999">Check potential </tspan></text>
</g><g
           transform="translate(570.0638,895.7943)"
           id="g634"><text
             id="text638"
             style="font-variant:normal;font-weight:normal;font-size:14px;font-family:HelveticaNeue;-inkscape-font-specification:HelveticaNeue;writing-mode:lr-tb;fill:#000000;fill-opacity:0.9;fill-rule:nonzero;stroke:none"
             transform="scale(1,-1)"><tspan
               id="tspan636"
               y="0"
               x="0 3.108 10.892 18.41 26.445999 31.108 35.518002 43.035999 50.554001 54.964001 58.855999 67.157997 74.676003 82.194 85.302002 92.302002 95.410004 103.446 111.23 118.23 122.122">incorrect decisions, </tspan></text>
</g><g
           transform="translate(594.6898,879.7943)"
           id="g640"><text
             id="text644"
             style="font-variant:normal;font-weight:normal;font-size:14px;font-family:HelveticaNeue;-inkscape-font-specification:HelveticaNeue;writing-mode:lr-tb;fill:#000000;fill-opacity:0.9;fill-rule:nonzero;stroke:none"
             transform="scale(1,-1)"><tspan
               id="tspan642"
               y="0"
               x="0 7.5180001 15.302 22.82 31.122 34.23 41.748001 45.639999 53.158001 60.942001 68.459999">enable chat</tspan></text>
</g></g></g><g
       id="g646"><g
         clip-path="url(#clipPath652)"
         id="g648"><path
           id="path654"
           style="fill:#000000;fill-opacity:0;fill-rule:nonzero;stroke:none"
           d="m 398.7689,901.9841 h 22.00527 v 25.14887 H 398.7689 Z" /><path
           id="path656"
           style="fill:#000000;fill-opacity:1;fill-rule:nonzero;stroke:none"
           d="m 405.0561,925.1682 c 0,1.0855 0.8792,1.9648 1.9647,1.9648 1.0856,0 1.9648,-0.8793 1.9648,-1.9648 v -7.2794 c 0.4175,0.3733 0.9676,0.5992 1.5718,0.5992 1.0119,0 1.8763,-0.6385 2.2104,-1.5325 0.4322,0.4568 1.0413,0.7466 1.7191,0.7466 1.2427,0 2.2595,-0.9578 2.3528,-2.1759 0.4175,0.3782 0.9726,0.6041 1.5767,0.6041 1.3017,0 2.3577,-1.056 2.3577,-2.3577 v -2.3577 -0.7859 -2.3577 c 0,-3.4727 -2.8145,-6.2872 -6.2872,-6.2872 h -0.7859 -3.1436 -0.005 -0.2554 c -0.2456,0 -0.4863,0.0147 -0.7221,0.0491 -2.7162,0.2751 -5.2164,1.67 -6.8766,3.8804 l -3.5366,4.7154 c -0.6533,0.8694 -0.4764,2.0974 0.393,2.7507 0.8694,0.6532 2.0974,0.4764 2.7506,-0.393 l 2.7507,-3.6692 v 15.8507 z m 5.5013,-12.9674 c 0,0.4323 -0.3536,0.7859 -0.7859,0.7859 -0.4322,0 -0.7859,-0.3536 -0.7859,-0.7859 v -4.7154 c 0,-0.4323 0.3537,-0.7859 0.7859,-0.7859 0.4323,0 0.7859,0.3536 0.7859,0.7859 z m 2.3577,0.7859 c -0.4322,0 -0.7859,-0.3536 -0.7859,-0.7859 v -4.7154 c 0,-0.4323 0.3537,-0.7859 0.7859,-0.7859 0.4323,0 0.7859,0.3536 0.7859,0.7859 v 4.7154 c 0,0.4323 -0.3536,0.7859 -0.7859,0.7859 z m 3.9295,-0.7859 c 0,0.4323 -0.3536,0.7859 -0.7859,0.7859 -0.4322,0 -0.7859,-0.3536 -0.7859,-0.7859 v -4.7154 c 0,-0.4323 0.3537,-0.7859 0.7859,-0.7859 0.4323,0 0.7859,0.3536 0.7859,0.7859 z" /></g></g><g
       id="g658"><g
         clip-path="url(#clipPath664)"
         id="g660"><path
           id="path666"
           style="fill:#000000;fill-opacity:0;fill-rule:nonzero;stroke:none"
           d="m 397.8955,967.1498 h 22.00527 v 25.14887 H 397.8955 Z" /><path
           id="path668"
           style="fill:#000000;fill-opacity:1;fill-rule:nonzero;stroke:none"
           d="m 404.1827,990.3339 c 0,1.0855 0.8792,1.9648 1.9647,1.9648 1.0856,0 1.9648,-0.8793 1.9648,-1.9648 v -7.2794 c 0.4175,0.3733 0.9676,0.5992 1.5718,0.5992 1.0118,0 1.8763,-0.6385 2.2103,-1.5325 0.4323,0.4568 1.0414,0.7466 1.7192,0.7466 1.2427,0 2.2595,-0.9578 2.3528,-2.1759 0.4175,0.3782 0.9726,0.6041 1.5767,0.6041 1.3017,0 2.3577,-1.056 2.3577,-2.3577 v -2.3577 -0.7859 -2.3577 c 0,-3.4727 -2.8145,-6.2872 -6.2872,-6.2872 h -0.7859 -3.1436 -0.005 -0.2554 c -0.2456,0 -0.4863,0.0147 -0.7221,0.0491 -2.7163,0.2751 -5.2164,1.6701 -6.8766,3.8804 l -3.5366,4.7154 c -0.6533,0.8694 -0.4764,2.0974 0.393,2.7507 0.8694,0.6533 2.0973,0.4764 2.7506,-0.393 l 2.7507,-3.6692 v 15.8507 z m 5.5013,-12.9674 c 0,0.4323 -0.3537,0.7859 -0.7859,0.7859 -0.4323,0 -0.7859,-0.3536 -0.7859,-0.7859 v -4.7154 c 0,-0.4322 0.3536,-0.7859 0.7859,-0.7859 0.4322,0 0.7859,0.3537 0.7859,0.7859 z m 2.3577,0.7859 c -0.4322,0 -0.7859,-0.3536 -0.7859,-0.7859 v -4.7154 c 0,-0.4322 0.3537,-0.7859 0.7859,-0.7859 0.4322,0 0.7859,0.3537 0.7859,0.7859 v 4.7154 c 0,0.4323 -0.3537,0.7859 -0.7859,0.7859 z m 3.9295,-0.7859 c 0,0.4323 -0.3536,0.7859 -0.7859,0.7859 -0.4322,0 -0.7859,-0.3536 -0.7859,-0.7859 v -4.7154 c 0,-0.4322 0.3537,-0.7859 0.7859,-0.7859 0.4323,0 0.7859,0.3537 0.7859,0.7859 z" /></g></g><g
       id="g670"><g
         clip-path="url(#clipPath676)"
         id="g672"><path
           id="path678"
           style="fill:#000000;fill-opacity:1;fill-rule:nonzero;stroke:none"
           d="m 357.0582,986.6928 h 24.9964 c 1.9278,0 3.0845,0 3.8556,-0.3219 1.1116,-0.4046 1.9873,-1.2803 2.3919,-2.3919 0.3219,-0.7711 0.3219,-1.9278 0.3219,-3.8556 v -11.0911 c 0,-1.9278 0,-3.0845 -0.3219,-3.8556 -0.4046,-1.1116 -1.2803,-1.9873 -2.3919,-2.3919 -0.7711,-0.3219 -1.9278,-0.3219 -3.8556,-0.3219 h -24.9964 c -1.9278,0 -3.0845,0 -3.8556,0.3219 -1.1116,0.4046 -1.9873,1.2803 -2.3919,2.3919 -0.3219,0.7711 -0.3219,1.9278 -0.3219,3.8556 v 11.0911 c 0,1.9278 0,3.0845 0.3219,3.8556 0.4046,1.1116 1.2803,1.9873 2.3919,2.3919 0.7711,0.3219 1.9278,0.3219 3.8556,0.3219 z" /></g></g><g
       id="g680"><g
         clip-path="url(#clipPath686)"
         id="g682"><g
           transform="translate(358.4624,968.1712)"
           id="g688"><text
             id="text692"
             style="font-variant:normal;font-weight:normal;font-size:17px;font-family:Verdana;-inkscape-font-specification:Verdana;writing-mode:lr-tb;fill:#ffffff;fill-opacity:1;fill-rule:nonzero;stroke:none"
             transform="scale(1,-1)"><tspan
               id="tspan690"
               y="0"
               x="0 11.8694">Co</tspan></text>
</g></g></g><g
       id="g694"><g
         clip-path="url(#clipPath700)"
         id="g696"><path
           id="path702"
           style="fill:#000000;fill-opacity:1;fill-rule:nonzero;stroke:none"
           d="m 357.0582,920.7592 h 24.9964 c 1.9278,0 3.0845,0 3.8556,-0.3219 1.1116,-0.4046 1.9873,-1.2803 2.3919,-2.3919 0.3219,-0.7711 0.3219,-1.9278 0.3219,-3.8556 v -11.0911 c 0,-1.9278 0,-3.0845 -0.3219,-3.8556 -0.4046,-1.1116 -1.2803,-1.9873 -2.3919,-2.3919 -0.7711,-0.3219 -1.9278,-0.3219 -3.8556,-0.3219 h -24.9964 c -1.9278,0 -3.0844,0 -3.8556,0.3219 -1.1116,0.4046 -1.9873,1.2803 -2.3919,2.3919 -0.3219,0.7711 -0.3219,1.9278 -0.3219,3.8556 v 11.0911 c 0,1.9278 0,3.0845 0.3219,3.8556 0.4046,1.1116 1.2803,1.9873 2.3919,2.3919 0.7712,0.3219 1.9278,0.3219 3.8556,0.3219 z" /></g></g><g
       id="g704"><g
         clip-path="url(#clipPath710)"
         id="g706"><g
           transform="translate(351.7014,902.2376)"
           id="g712"><text
             id="text716"
             style="font-variant:normal;font-weight:normal;font-size:17px;font-family:Verdana;-inkscape-font-specification:Verdana;writing-mode:lr-tb;fill:#ffffff;fill-opacity:1;fill-rule:nonzero;stroke:none"
             transform="scale(1,-1)"><tspan
               id="tspan714"
               y="0"
               x="0 9.8361998 20.1535 29.0105">Post</tspan></text>
</g></g></g></g></svg>